<svg xmlns="http://www.w3.org/2000/svg" width="173.63" height="285" viewBox="0 0 173.63 285"><defs><style>.a{fill:#3b0a80;}.b{fill:#ad9fbf;font-size:25px;font-family:SegoeUI, Segoe UI;}</style></defs><g transform="translate(-120 -307)"><g transform="translate(120 524)"><path class="a" d="M1156.954,362.254h10.017a14.3,14.3,0,0,1,6.889,1.611,11.57,11.57,0,0,1,4.639,4.488,13.894,13.894,0,0,1,0,13.139,11.559,11.559,0,0,1-4.639,4.488,14.277,14.277,0,0,1-6.889,1.611h-10.017Zm9.877,23.02a11.665,11.665,0,0,0,5.658-1.32,9.438,9.438,0,0,0,3.76-3.658,11.47,11.47,0,0,0,0-10.748,9.433,9.433,0,0,0-3.76-3.656,11.647,11.647,0,0,0-5.658-1.321h-7.277v20.7Z" transform="translate(-1156.954 -360.553)"/><path class="a" d="M1178.724,366.85a8.67,8.67,0,0,1,4.306-.978v2.5l-.6-.037a5.818,5.818,0,0,0-4.568,1.847,7.493,7.493,0,0,0-1.653,5.175v9.7h-2.495V366.017h2.39v3.728A6.152,6.152,0,0,1,1178.724,366.85Z" transform="translate(-1145.21 -358.018)"/><path class="a" d="M1183.627,384.567a9.165,9.165,0,0,1-3.216-1.684l1.124-2.026a9.376,9.376,0,0,0,2.918,1.537,11.285,11.285,0,0,0,3.655.6,6.817,6.817,0,0,0,3.743-.815,2.613,2.613,0,0,0,1.213-2.3,2.091,2.091,0,0,0-.668-1.645,4.383,4.383,0,0,0-1.687-.906,23.933,23.933,0,0,0-2.706-.6,30.026,30.026,0,0,1-3.621-.888,5.273,5.273,0,0,1-2.337-1.537,4.361,4.361,0,0,1-.966-3.005,4.746,4.746,0,0,1,1.932-3.906,8.491,8.491,0,0,1,5.379-1.522,13.6,13.6,0,0,1,3.583.488,9.808,9.808,0,0,1,2.953,1.286l-1.088,2.063a9.146,9.146,0,0,0-5.447-1.628,6.166,6.166,0,0,0-3.6.869,2.677,2.677,0,0,0-1.213,2.279,2.285,2.285,0,0,0,.685,1.738,4.161,4.161,0,0,0,1.7.957,25.944,25.944,0,0,0,2.813.634,31.209,31.209,0,0,1,3.55.869,5.2,5.2,0,0,1,2.284,1.483,4.165,4.165,0,0,1,.949,2.9,4.643,4.643,0,0,1-2.021,3.963,9.383,9.383,0,0,1-5.607,1.468A13.791,13.791,0,0,1,1183.627,384.567Z" transform="translate(-1140.518 -358.018)"/><path class="a" d="M1194.3,361.815a1.955,1.955,0,0,1,.527,1.393,3.718,3.718,0,0,1-.124.922c-.082.328-.192.706-.333,1.141l-1.512,5h-1.687l1.231-5.214a1.749,1.749,0,0,1-.949-.668,1.961,1.961,0,0,1-.352-1.177,1.94,1.94,0,0,1,.527-1.412,1.78,1.78,0,0,1,1.335-.543A1.757,1.757,0,0,1,1194.3,361.815Z" transform="translate(-1133.032 -361.254)"/><path class="a" d="M1203.529,384.567a9.167,9.167,0,0,1-3.216-1.684l1.126-2.026a9.347,9.347,0,0,0,2.917,1.537,11.285,11.285,0,0,0,3.655.6,6.823,6.823,0,0,0,3.745-.815,2.611,2.611,0,0,0,1.211-2.3,2.1,2.1,0,0,0-.667-1.645,4.4,4.4,0,0,0-1.687-.906,23.975,23.975,0,0,0-2.708-.6,30.094,30.094,0,0,1-3.621-.888,5.279,5.279,0,0,1-2.337-1.537,4.359,4.359,0,0,1-.966-3.005,4.743,4.743,0,0,1,1.934-3.906,8.482,8.482,0,0,1,5.377-1.522,13.616,13.616,0,0,1,3.585.488,9.848,9.848,0,0,1,2.952,1.286l-1.09,2.063a9.139,9.139,0,0,0-5.447-1.628,6.171,6.171,0,0,0-3.6.869,2.678,2.678,0,0,0-1.213,2.279,2.291,2.291,0,0,0,.686,1.738,4.177,4.177,0,0,0,1.706.957,25.8,25.8,0,0,0,2.811.634,31.183,31.183,0,0,1,3.549.869,5.2,5.2,0,0,1,2.286,1.483,4.165,4.165,0,0,1,.949,2.9,4.64,4.64,0,0,1-2.022,3.963,9.378,9.378,0,0,1-5.605,1.468A13.794,13.794,0,0,1,1203.529,384.567Z" transform="translate(-1126.573 -358.018)"/><path class="a" d="M1226.163,367.085a8.56,8.56,0,0,1,3.3,3.422,11.269,11.269,0,0,1,0,10.1,8.6,8.6,0,0,1-3.286,3.422,9.26,9.26,0,0,1-4.728,1.213,8.511,8.511,0,0,1-4.06-.961,7.764,7.764,0,0,1-2.971-2.8v10.605h-2.495V366.017h2.389v3.765a7.791,7.791,0,0,1,2.971-2.9,8.509,8.509,0,0,1,4.165-1.014A9.281,9.281,0,0,1,1226.163,367.085Zm-1.371,14.949a6.419,6.419,0,0,0,2.478-2.624,8.167,8.167,0,0,0,.9-3.872,8.059,8.059,0,0,0-.9-3.855,6.581,6.581,0,0,0-2.478-2.624,7.061,7.061,0,0,0-7.048,0,6.637,6.637,0,0,0-2.461,2.624,8.082,8.082,0,0,0-.895,3.855,8.189,8.189,0,0,0,.895,3.872,6.472,6.472,0,0,0,2.461,2.624,7.185,7.185,0,0,0,7.048,0Z" transform="translate(-1118.435 -358.018)"/><path class="a" d="M1238.535,367.738a7.321,7.321,0,0,1,1.934,5.519v11.8h-2.389v-2.968a5.8,5.8,0,0,1-2.478,2.318,8.475,8.475,0,0,1-3.884.832,7.46,7.46,0,0,1-4.922-1.52,5.334,5.334,0,0,1-.123-7.927q1.707-1.485,5.43-1.485h5.869v-1.158a4.962,4.962,0,0,0-1.335-3.747,5.417,5.417,0,0,0-3.9-1.286,9.666,9.666,0,0,0-3.374.6,8.436,8.436,0,0,0-2.777,1.648l-1.124-1.918a9.87,9.87,0,0,1,3.374-1.9,12.814,12.814,0,0,1,4.148-.67A7.674,7.674,0,0,1,1238.535,367.738Zm-2.811,14.476a5.9,5.9,0,0,0,2.248-2.876v-3.114h-5.8q-4.742,0-4.745,3.4a3.145,3.145,0,0,0,1.231,2.624,5.478,5.478,0,0,0,3.444.959A6.425,6.425,0,0,0,1235.724,382.213Z" transform="translate(-1109.298 -358.018)"/><path class="a" d="M1241.638,384.006a8.8,8.8,0,0,1-3.391-3.456,10.2,10.2,0,0,1-1.228-5.013,10.087,10.087,0,0,1,1.228-4.995,8.835,8.835,0,0,1,3.391-3.439,9.731,9.731,0,0,1,4.9-1.231,9.264,9.264,0,0,1,4.27.961,7.168,7.168,0,0,1,2.969,2.8l-1.862,1.3a5.911,5.911,0,0,0-2.32-2.119,6.736,6.736,0,0,0-3.058-.706,7.1,7.1,0,0,0-3.6.923,6.417,6.417,0,0,0-2.5,2.624,8.86,8.86,0,0,0,0,7.765,6.421,6.421,0,0,0,2.5,2.605,7.078,7.078,0,0,0,3.6.923,6.88,6.88,0,0,0,3.058-.687,5.762,5.762,0,0,0,2.32-2.1l1.862,1.3a7.134,7.134,0,0,1-2.988,2.8,9.265,9.265,0,0,1-4.252.961A9.731,9.731,0,0,1,1241.638,384.006Z" transform="translate(-1100.855 -358.018)"/><path class="a" d="M1266.427,376.333h-15.464a6.884,6.884,0,0,0,2.212,4.8,7.224,7.224,0,0,0,5.063,1.828,7.784,7.784,0,0,0,3.163-.633,6.9,6.9,0,0,0,2.5-1.866l1.406,1.667a7.945,7.945,0,0,1-3.075,2.316,10.153,10.153,0,0,1-4.06.8,10.013,10.013,0,0,1-5.044-1.25,8.881,8.881,0,0,1-3.429-3.456,10.09,10.09,0,0,1-1.228-4.995,10.458,10.458,0,0,1,1.175-4.995,8.678,8.678,0,0,1,3.235-3.439,9.257,9.257,0,0,1,9.226,0,8.62,8.62,0,0,1,3.2,3.42,10.563,10.563,0,0,1,1.16,5.013Zm-13.408-6.5a6.975,6.975,0,0,0-2.056,4.58h13.11a6.994,6.994,0,0,0-2.056-4.58,6.644,6.644,0,0,0-9,0Z" transform="translate(-1092.833 -358.018)"/></g><text class="b" transform="translate(290 586)"><tspan x="-86.145" y="0">Doctors</tspan></text><path class="a" d="M483.77,245.106a84.8,84.8,0,0,0-62.634-23.817c-44,1.691-80.037,37.468-82.03,81.451a84.89,84.89,0,0,0,36.087,73.806l3.58,37.669a7.555,7.555,0,0,0,12.612,5.031l36.59-28.242-6.949-9-31.576,24.373-3.446-36.267-2.271-1.5a73.647,73.647,0,0,1-33.267-65.353c1.727-38.125,32.961-69.138,71.1-70.6a74.115,74.115,0,0,1,77.041,74.054,74.533,74.533,0,0,1-42.183,66.9,16.579,16.579,0,0,1-12.62.837c-9.644-3.432-12.753-14.934-13.45-25.632a42.578,42.578,0,0,0,36.658-42.106h-2.844v-15.8a11.38,11.38,0,0,0-6.654-10.338l-6.859-3.119a9.424,9.424,0,1,0-9.354,8.3,9.39,9.39,0,0,0,7-3.126l6.86,3.121a5.681,5.681,0,0,1,3.323,5.162v15.8h-2.843a31.145,31.145,0,1,1-62.29,0h-2.842v-15.8a5.683,5.683,0,0,1,3.321-5.162l6.794-3.09a9.559,9.559,0,1,0-2.378-5.164l-6.771,3.078a11.383,11.383,0,0,0-6.654,10.338v15.8h-2.842a42.575,42.575,0,0,0,36.98,42.147c1.36,24.136,12.005,33.091,21.033,36.3a28.028,28.028,0,0,0,21.342-1.292,85.961,85.961,0,0,0,48.646-77.16A84.772,84.772,0,0,0,483.77,245.106Z" transform="translate(-216.355 85.777)"/></g></svg>