<svg xmlns="http://www.w3.org/2000/svg" width="10.656" height="13.986" viewBox="0 0 10.656 13.986"><defs><style>.a{fill:#3b0a80;}</style></defs><path class="a" d="M11.328,12.156A1.332,1.332,0,1,0,10,10.824,1.336,1.336,0,0,0,11.328,12.156Zm4-5.994h-.666V4.83A3.33,3.33,0,1,0,8,4.83V6.162H7.332A1.336,1.336,0,0,0,6,7.494v6.66a1.336,1.336,0,0,0,1.332,1.332h7.992a1.336,1.336,0,0,0,1.332-1.332V7.494A1.336,1.336,0,0,0,15.324,6.162ZM9.263,4.83a2.065,2.065,0,1,1,4.129,0V6.162H9.263Zm6.061,9.324H7.332V7.494h7.992Z" transform="translate(-6 -1.5)"/></svg>