<svg xmlns="http://www.w3.org/2000/svg" width="13.038" height="13.991" viewBox="0 0 13.038 13.991"><defs><style>.a{fill:#3b0a80;}</style></defs><g transform="translate(0 7.881)"><g transform="translate(0)"><path class="a" d="M23.959,288.389c-4.2,0-6.519,1.989-6.519,5.6a.511.511,0,0,0,.511.511H29.967a.511.511,0,0,0,.511-.511C30.478,290.378,28.163,288.389,23.959,288.389Zm-5.479,5.089c.2-2.7,2.042-4.068,5.479-4.068s5.278,1.368,5.479,4.068Z" transform="translate(-17.44 -288.389)"/></g></g><g transform="translate(3.132)"><path class="a" d="M135.436,0a3.346,3.346,0,0,0-3.387,3.455,3.4,3.4,0,1,0,6.774,0A3.347,3.347,0,0,0,135.436,0Zm0,6.11a2.526,2.526,0,0,1-2.366-2.655,2.322,2.322,0,0,1,2.366-2.434A2.348,2.348,0,0,1,137.8,3.455,2.526,2.526,0,0,1,135.436,6.11Z" transform="translate(-132.049)"/></g></svg>